HIERARCHY
ROOT hip
{
  OFFSET 0 0 0
  CHANNELS 6 Xposition Yposition Zposition Zrotation Yrotation Xrotation
  JOINT abdomen
  {
    OFFSET 0 20.6881 -0.73152
    CHANNELS 3 Zrotation Xrotation Yrotation
    JOINT chest
    {
      OFFSET 0 11.7043 -0.48768
      CHANNELS 3 Zrotation Xrotation Yrotation
      JOINT neck
      {
        OFFSET 0 22.1894 -2.19456
        CHANNELS 3 Zrotation Xrotation Yrotation
        JOINT head
        {
          OFFSET -0.24384 7.07133 1.2192
          CHANNELS 3 Zrotation Xrotation Yrotation
          JOINT leftEye
          {
            OFFSET 4.14528 8.04674 8.04672
            CHANNELS 3 Zrotation Xrotation Yrotation
            End Site
            {
              OFFSET 1 0 0
            }
          }
          JOINT rightEye
          {
            OFFSET -3.6576 8.04674 8.04672
            CHANNELS 3 Zrotation Xrotation Yrotation
            End Site
            {
              OFFSET 1 0 0
            }
          }
        }
      }
      JOINT rCollar
      {
        OFFSET -2.68224 19.2634 -4.8768
        CHANNELS 3 Zrotation Xrotation Yrotation
        JOINT rShldr
        {
          OFFSET -8.77824 -1.95073 1.46304
          CHANNELS 3 Zrotation Xrotation Yrotation
          JOINT rForeArm
          {
            OFFSET -28.1742 -1.7115 0.48768
            CHANNELS 3 Zrotation Xrotation Yrotation
            JOINT rHand
            {
              OFFSET -22.5879 0.773209 7.07136
              CHANNELS 3 Zrotation Xrotation Yrotation
              JOINT rThumb1
              {
                OFFSET -1.2192 -0.487915 3.41376
                CHANNELS 3 Zrotation Xrotation Yrotation
                JOINT rThumb2
                {
                  OFFSET -3.37035 -0.52449 3.41376
                  CHANNELS 3 Zrotation Xrotation Yrotation
                  End Site
                  {
                    OFFSET -1.78271 -1.18214 1.43049
                  }
                }
              }
              JOINT rIndex1
              {
                OFFSET -7.75947 0.938293 5.60832
                CHANNELS 3 Zrotation Xrotation Yrotation
                JOINT rIndex2
                {
                  OFFSET -2.54057 -0.884171 1.56538
                  CHANNELS 3 Zrotation Xrotation Yrotation
                  End Site
                  {
                    OFFSET -1.62519 -0.234802 1.16502
                  }
                }
              }
              JOINT rMid1
              {
                OFFSET -8.24714 1.18213 3.41376
                CHANNELS 3 Zrotation Xrotation Yrotation
                JOINT rMid2
                {
                  OFFSET -3.10165 -0.590103 1.0647
                  CHANNELS 3 Zrotation Xrotation Yrotation
                  End Site
                  {
                    OFFSET -2.48547 -0.328903 0.83742
                  }
                }
              }
              JOINT rRing1
              {
                OFFSET -8.82822 0.546677 1.51678
                CHANNELS 3 Zrotation Xrotation Yrotation
                JOINT rRing2
                {
                  OFFSET -2.60934 -0.819778 -0.0198488
                  CHANNELS 3 Zrotation Xrotation Yrotation
                  End Site
                  {
                    OFFSET -2.33842 -0.294052 0.168128
                  }
                }
              }
              JOINT rPinky1
              {
                OFFSET -8.27202 -0.0477905 -0.4584
                CHANNELS 3 Zrotation Xrotation Yrotation
                JOINT rPinky2
                {
                  OFFSET -1.82734 -0.647385 -0.700984
                  CHANNELS 3 Zrotation Xrotation Yrotation
                  End Site
                  {
                    OFFSET -1.69225 -0.51767 -0.607171
                  }
                }
              }
            }
          }
        }
      }
      JOINT lCollar
      {
        OFFSET 2.68224 19.2634 -4.8768
        CHANNELS 3 Zrotation Xrotation Yrotation
        JOINT lShldr
        {
          OFFSET 8.77824 -1.95073 1.46304
          CHANNELS 3 Zrotation Xrotation Yrotation
          JOINT lForeArm
          {
            OFFSET 28.1742 -1.7115 0.48768
            CHANNELS 3 Zrotation Xrotation Yrotation
            JOINT lHand
            {
              OFFSET 22.5879 0.773209 7.07136
              CHANNELS 3 Zrotation Xrotation Yrotation
              JOINT lThumb1
              {
                OFFSET 1.2192 -0.487915 3.41376
                CHANNELS 3 Zrotation Xrotation Yrotation
                JOINT lThumb2
                {
                  OFFSET 3.37035 -0.52449 3.41376
                  CHANNELS 3 Zrotation Xrotation Yrotation
                  End Site
                  {
                    OFFSET 1.78271 -1.18214 1.43049
                  }
                }
              }
              JOINT lIndex1
              {
                OFFSET 7.75947 0.938293 5.60832
                CHANNELS 3 Zrotation Xrotation Yrotation
                JOINT lIndex2
                {
                  OFFSET 2.54057 -0.884171 1.56538
                  CHANNELS 3 Zrotation Xrotation Yrotation
                  End Site
                  {
                    OFFSET 1.62519 -0.234802 1.16502
                  }
                }
              }
              JOINT lMid1
              {
                OFFSET 8.24714 1.18213 3.41376
                CHANNELS 3 Zrotation Xrotation Yrotation
                JOINT lMid2
                {
                  OFFSET 3.10165 -0.590103 1.0647
                  CHANNELS 3 Zrotation Xrotation Yrotation
                  End Site
                  {
                    OFFSET 2.48547 -0.328903 0.83742
                  }
                }
              }
              JOINT lRing1
              {
                OFFSET 8.82822 0.546677 1.51678
                CHANNELS 3 Zrotation Xrotation Yrotation
                JOINT lRing2
                {
                  OFFSET 2.60934 -0.819778 -0.0198488
                  CHANNELS 3 Zrotation Xrotation Yrotation
                  End Site
                  {
                    OFFSET 2.33842 -0.294052 0.168128
                  }
                }
              }
              JOINT lPinky1
              {
                OFFSET 8.27202 -0.0477905 -0.4584
                CHANNELS 3 Zrotation Xrotation Yrotation
                JOINT lPinky2
                {
                  OFFSET 1.82734 -0.647385 -0.700984
                  CHANNELS 3 Zrotation Xrotation Yrotation
                  End Site
                  {
                    OFFSET 1.69225 -0.51767 -0.607171
                  }
                }
              }
            }
          }
        }
      }
    }
  }
  JOINT rButtock
  {
    OFFSET -8.77824 4.35084 1.2192
    CHANNELS 3 Zrotation Xrotation Yrotation
    JOINT rThigh
    {
      OFFSET 0 -1.70687 -2.19456
      CHANNELS 3 Zrotation Xrotation Yrotation
      JOINT rShin
      {
        OFFSET 0 -36.8199 0.73152
        CHANNELS 3 Zrotation Xrotation Yrotation
        JOINT rFoot
        {
          OFFSET 0.73152 -45.1104 -5.12064
          CHANNELS 3 Zrotation Xrotation Yrotation
          End Site
          {
            OFFSET -1.1221 -3.69964 12.103
          }
        }
      }
    }
  }
  JOINT lButtock
  {
    OFFSET 8.77824 4.35084 1.2192
    CHANNELS 3 Zrotation Xrotation Yrotation
    JOINT lThigh
    {
      OFFSET 0 -1.70687 -2.19456
      CHANNELS 3 Zrotation Xrotation Yrotation
      JOINT lShin
      {
        OFFSET 0 -36.8199 0.73152
        CHANNELS 3 Zrotation Xrotation Yrotation
        JOINT lFoot
        {
          OFFSET -0.73152 -45.1104 -5.12064
          CHANNELS 3 Zrotation Xrotation Yrotation
          End Site
          {
            OFFSET 1.1221 -3.69964 12.103
          }
        }
      }
    }
  }
}
MOTION
Frames:	6
Frame Time:	0.00833333
4.281401 82.156906 -18.81148 351.159 -67.2456 374.495 6.5530195 -7.2030196 11.280499 -0.37162697 1.7536799 3.15149 -0.926413 7.6047697 -4.4545097 -4.55429 -6.6373296 -9.14438 -0.0 0.0 0.0 -0.0 0.0 0.0 -1.1742399e-13 -2.1372498e-13 5.4718296e-13 75.993195 29.4672 34.2352 -27.222797 -27.138197 62.8155 -1.3278298 -30.851997 -4.8148394 -1.0229799e-09 2.6919398e-09 2.7546898e-09 -1.83371e-09 4.5905395e-09 4.7301696e-09 -1.0229799e-09 2.6919498e-09 2.7546698e-09 7.73091 5.4748797 0.41731396 -1.0229799e-09 2.6919398e-09 2.7546898e-09 2.90554 0.96518296 0.102901995 -1.0229799e-09 2.6919498e-09 2.7546798e-09 10.278599 0.7318009 0.0259123 -1.02299e-09 2.6919398e-09 2.7546898e-09 2.22167 -0.733487 -0.20891999 -1.1753799e-13 -2.1372498e-13 5.46959e-13 -64.914 69.7523 -28.1437 28.374199 -33.791798 -73.3456 1.2521499 -29.990099 4.6549397 -2.1306899e-10 -9.208349e-10 -2.4349398e-09 -3.11577e-10 -1.58892e-09 -4.20917e-09 -2.1307399e-10 -9.2083197e-10 -2.43493e-09 -7.73091 5.4748797 -0.41731396 -2.1306899e-10 -9.208369e-10 -2.4349498e-09 -2.90554 0.96518296 -0.102901995 -2.13073e-10 -9.208349e-10 -2.4349398e-09 -10.278599 0.7318009 -0.0259123 -2.1305997e-10 -9.2083297e-10 -2.4349598e-09 -2.22167 -0.733487 0.20891999 -2.0321698e-16 0.0 -3.8825097e-19 -3.9089098 -19.980398 -1.40712 -0.0245898 24.248898 0.470083 -4.9073696 -10.5144 -19.843998 2.0321698e-16 0.0 3.8825097e-19 5.8823195 -28.350397 -15.461299 0.330268 39.4227 -0.7194039 -0.0448827 -12.834799 -0.83654994
4.5522013 81.8608 -19.10472 352.36697 -66.9916 373.29398 6.4481196 -6.7798595 12.7415 -0.595045 1.8910099 3.5771499 -1.16643 7.5672293 -5.1799297 -4.19405 -8.02566 -10.5125 -0.0 0.0 0.0 -0.0 0.0 0.0 -8.7551196e-14 3.08155e-15 4.1675197e-13 77.327896 25.531898 35.4861 -26.8977 -26.001999 60.883797 -1.4601899 -32.1405 -5.0657997 -5.92442e-10 4.37976e-09 4.1926698e-09 -1.12793e-09 7.50407e-09 7.22549e-09 -5.9243893e-10 4.37976e-09 4.19265e-09 7.73091 5.4748797 0.41731396 -5.92444e-10 4.37976e-09 4.1926698e-09 2.90554 0.96518296 0.102901995 -5.92438e-10 4.37976e-09 4.1926698e-09 10.278599 0.7318009 0.0259123 -5.924479e-10 4.37976e-09 4.1926698e-09 2.22167 -0.733487 -0.20891999 -8.7732996e-14 3.0796098e-15 4.16504e-13 -71.129395 69.5163 -19.765398 28.342897 -33.3861 -72.6978 1.39965 -31.5537 4.9510593 -1.23999e-09 -1.3263399e-09 -4.19392e-09 -2.03949e-09 -2.29118e-09 -7.2717796e-09 -1.23999e-09 -1.3263399e-09 -4.1939e-09 -7.73091 5.4748797 -0.41731396 -1.23999e-09 -1.3263399e-09 -4.19395e-09 -2.90554 0.96518296 -0.102901995 -1.23999e-09 -1.3263399e-09 -4.1939296e-09 -10.278599 0.7318009 -0.0259123 -1.2399799e-09 -1.3263299e-09 -4.1939394e-09 -2.22167 -0.733487 0.20891999 -2.0321698e-16 0.0 -3.8825097e-19 -3.8536997 -21.932098 -1.5969899 -0.0626544 27.184399 0.554652 -5.20459 -11.271999 -19.625599 2.0321698e-16 0.0 3.8825097e-19 6.10571 -29.8938 -15.2825985 0.36895996 41.3164 -0.753903 -0.62441295 -12.0657 -2.7014098
4.8171015 81.554504 -19.19939 354.271 -66.15879 371.44595 6.11751 -6.2441497 13.372799 -0.84057194 1.92809 3.77386 -1.27808 7.7549195 -5.7429495 -3.968 -9.46108 -11.601899 -0.0 0.0 0.0 -0.0 0.0 0.0 -6.6285193e-14 -5.73134e-14 9.8892296e-14 78.657295 21.783298 37.1173 -26.316698 -24.273499 57.948196 -1.5053399 -32.559097 -5.1490097 3.1439798e-10 2.3927798e-09 2.1159698e-09 4.8686694e-10 4.11786e-09 3.6636998e-09 3.1440298e-10 2.3927798e-09 2.1159599e-09 7.73091 5.4748797 0.41731396 3.1439598e-10 2.39277e-09 2.1159698e-09 2.90554 0.96518296 0.102901995 3.1440198e-10 2.3927798e-09 2.1159698e-09 10.278599 0.7318009 0.0259123 3.1439298e-10 2.3927798e-09 2.11598e-09 2.22167 -0.733487 -0.20891999 -6.64669e-14 -5.7318496e-14 9.86686e-14 -77.0916 68.299194 -11.403999 28.331799 -33.260498 -72.499596 1.6603899 -34.0038 5.4378996 -1.0322999e-09 -8.0820994e-10 -2.55759e-09 -1.7185499e-09 -1.4025899e-09 -4.44236e-09 -1.0322999e-09 -8.0820495e-10 -2.5575597e-09 -7.73091 5.4748797 -0.41731396 -1.0322999e-09 -8.0821094e-10 -2.55761e-09 -2.90554 0.96518296 -0.102901995 -1.0322999e-09 -8.0820795e-10 -2.55759e-09 -10.278599 0.7318009 -0.0259123 -1.0322899e-09 -8.0820495e-10 -2.5575997e-09 -2.22167 -0.733487 0.20891999 -2.0321698e-16 0.0 -3.8825097e-19 -4.4504 -23.098999 -2.0865 -0.090266794 29.433199 0.63793296 -5.6249194 -12.1845 -19.858898 2.0321698e-16 0.0 3.8825097e-19 5.92337 -31.8895 -15.282499 0.42140597 43.4941 -0.79201996 -1.6958199 -10.4814 -6.6556997
5.1073017 81.2446 -19.17743 355.313 -65.3325 370.12497 5.87275 -5.6995697 13.927899 -1.1299698 1.9710599 3.9480298 -1.3602899 8.017099 -6.26295 -3.8657098 -10.922199 -12.631499 -0.0 0.0 0.0 -0.0 0.0 0.0 -4.4310296e-14 -1.69561e-13 -1.30303e-13 79.89219 18.220999 38.652798 -25.6203 -22.497 55.245 -1.5253899 -32.7538 -5.1873198 1.01002e-09 -1.62224e-10 -4.5829898e-10 1.7512899e-09 -2.50313e-10 -7.63924e-10 1.01003e-09 -1.62226e-10 -4.5830195e-10 7.73091 5.4748797 0.41731396 1.01002e-09 -1.6224899e-10 -4.5829598e-10 2.90554 0.96518296 0.102901995 1.01003e-09 -1.62224e-10 -4.5829698e-10 10.278599 0.7318009 0.0259123 1.01002e-09 -1.6222299e-10 -4.58286e-10 2.22167 -0.733487 -0.20891999 -4.445e-14 -1.6956698e-13 -1.30502e-13 -81.3512 66.435 -4.6471996 28.332098 -33.260498 -72.4973 1.9554199 -36.387897 5.9447794 -2.8416997e-10 8.879789e-11 -8.854979e-11 -4.88412e-10 1.44916e-10 -1.6079998e-10 -2.8417396e-10 8.88047e-11 -8.852119e-11 -7.73091 5.4748797 -0.41731396 -2.84171e-10 8.8798e-11 -8.855299e-11 -2.90554 0.96518296 -0.102901995 -2.8418098e-10 8.87999e-11 -8.85522e-11 -10.278599 0.7318009 -0.0259123 -2.84168e-10 8.880349e-11 -8.85562e-11 -2.22167 -0.733487 0.20891999 -2.0321698e-16 0.0 -3.8825097e-19 -5.2993298 -24.120098 -2.7278 -0.117123 31.492798 0.72223896 -5.96156 -12.952399 -20.0329 2.0321698e-16 0.0 3.8825097e-19 5.9755697 -34.0585 -15.210399 0.47546497 45.517097 -0.82842296 -2.72834 -9.04707 -11.065299
5.3891015 80.8509 -19.05967 355.82996 -65.06529 369.55298 6.2667494 -5.3299 15.099499 -1.55038 2.1398299 4.2859597 -1.5048599 8.288309 -6.8291597 -4.0011697 -12.509999 -13.783899 -0.0 0.0 0.0 -0.0 0.0 0.0 -1.6538098e-14 -1.97657e-13 8.8952995e-14 80.69669 14.804898 39.664898 -25.1883 -21.505299 53.686096 -1.5736899 -33.196598 -5.2760997 6.1576094e-10 -1.0254999e-09 -1.3024899e-09 1.09735e-09 -1.7439299e-09 -2.23552e-09 6.15768e-10 -1.02551e-09 -1.3024999e-09 7.73091 5.4748797 0.41731396 6.1576094e-10 -1.0255199e-09 -1.3024899e-09 2.90554 0.96518296 0.102901995 6.15769e-10 -1.0254999e-09 -1.3024899e-09 10.278599 0.7318009 0.0259123 6.15758e-10 -1.0254999e-09 -1.3024799e-09 2.22167 -0.733487 -0.20891999 -1.6563699e-14 -1.9765999e-13 8.87294e-14 -83.38719 64.3145 -0.24319698 28.334898 -33.303997 -72.5731 2.1857598 -38.089096 6.3245597 1.0321499e-09 1.3197999e-09 1.69804e-09 1.7280799e-09 2.2889899e-09 2.9610099e-09 1.0321399e-09 1.3197999e-09 1.69808e-09 -7.73091 5.4748797 -0.41731396 1.0321499e-09 1.3197899e-09 1.6980499e-09 -2.90554 0.96518296 -0.102901995 1.0321399e-09 1.3197999e-09 1.6980499e-09 -10.278599 0.7318009 -0.0259123 1.0321499e-09 1.3197999e-09 1.69804e-09 -2.22167 -0.733487 0.20891999 -2.0321698e-16 0.0 -3.8825097e-19 -5.8425198 -25.415998 -3.3833997 -0.14340399 33.4352 0.80219096 -5.9757595 -13.246699 -19.752998 2.0321698e-16 0.0 3.8825097e-19 7.16467 -36.612095 -14.5418 0.531239 47.3736 -0.86241096 -3.8829098 -8.585219 -15.547198
5.6286016 80.447105 -18.62025 355.68198 -65.13609 369.774 6.61411 -4.95674 16.337898 -1.9135299 2.29964 4.6418 -1.61258 8.53288 -7.36436 -4.16071 -13.968899 -14.889198 -0.0 0.0 0.0 -0.0 0.0 0.0 2.77806e-15 -1.9128098e-13 3.9766899e-13 81.091896 11.8223 40.6592 -24.916498 -20.9177 52.654697 -1.63014 -33.701397 -5.37847 -1.94195e-10 -1.0663399e-09 -1.1682499e-09 -2.98621e-10 -1.8366599e-09 -2.0279098e-09 -1.94189e-10 -1.0663399e-09 -1.1682699e-09 7.73091 5.4748797 0.41731396 -1.94195e-10 -1.0663399e-09 -1.1682499e-09 2.90554 0.96518296 0.102901995 -1.9418499e-10 -1.0663399e-09 -1.1682499e-09 10.278599 0.7318009 0.0259123 -1.9419999e-10 -1.0663399e-09 -1.16824e-09 2.22167 -0.733487 -0.20891999 2.8377798e-15 -1.91279e-13 3.9741997e-13 -83.9961 62.039295 2.7500498 28.351398 -33.4965 -72.877396 2.34825 -39.2155 6.5854897 1.96311e-09 2.1593798e-09 2.6852998e-09 3.3005298e-09 3.75483e-09 4.6927497e-09 1.96311e-09 2.15939e-09 2.68535e-09 -7.73091 5.4748797 -0.41731396 1.96311e-09 2.1593798e-09 2.6853098e-09 -2.90554 0.96518296 -0.102901995 1.96311e-09 2.1593798e-09 2.6853098e-09 -10.278599 0.7318009 -0.0259123 1.9631199e-09 2.15939e-09 2.6853098e-09 -2.22167 -0.733487 0.20891999 -2.0321698e-16 0.0 -3.8825097e-19 -6.5601997 -26.564798 -4.06463 -0.16988899 35.1912 0.87517 -5.8437996 -13.382599 -19.2135 2.0321698e-16 0.0 3.8825097e-19 8.7918 -38.492397 -13.944499 0.55632997 48.166298 -0.88331294 -4.5594096 -8.90104 -17.463099
